<svg width="148" height="30" viewBox="0 0 148 30" fill="none" xmlns="http://www.w3.org/2000/svg">
<path d="M35.7 15C35.7 13.6267 36.0067 12.4 36.62 11.32C37.2467 10.2267 38.0933 9.38 39.16 8.78C40.24 8.16667 41.4467 7.86 42.78 7.86C44.34 7.86 45.7067 8.26 46.88 9.06C48.0533 9.86 48.8733 10.9667 49.34 12.38H46.12C45.8 11.7133 45.3467 11.2133 44.76 10.88C44.1867 10.5467 43.52 10.38 42.76 10.38C41.9467 10.38 41.22 10.5733 40.58 10.96C39.9533 11.3333 39.46 11.8667 39.1 12.56C38.7533 13.2533 38.58 14.0667 38.58 15C38.58 15.92 38.7533 16.7333 39.1 17.44C39.46 18.1333 39.9533 18.6733 40.58 19.06C41.22 19.4333 41.9467 19.62 42.76 19.62C43.52 19.62 44.1867 19.4533 44.76 19.12C45.3467 18.7733 45.8 18.2667 46.12 17.6H49.34C48.8733 19.0267 48.0533 20.14 46.88 20.94C45.72 21.7267 44.3533 22.12 42.78 22.12C41.4467 22.12 40.24 21.82 39.16 21.22C38.0933 20.6067 37.2467 19.76 36.62 18.68C36.0067 17.6 35.7 16.3733 35.7 15ZM54.5316 7.2V22H51.7316V7.2H54.5316ZM67.598 16.22C67.598 16.62 67.5713 16.98 67.518 17.3H59.418C59.4846 18.1 59.7646 18.7267 60.258 19.18C60.7513 19.6333 61.358 19.86 62.078 19.86C63.118 19.86 63.858 19.4133 64.298 18.52H67.318C66.998 19.5867 66.3846 20.4667 65.478 21.16C64.5713 21.84 63.458 22.18 62.138 22.18C61.0713 22.18 60.1113 21.9467 59.258 21.48C58.418 21 57.758 20.3267 57.278 19.46C56.8113 18.5933 56.578 17.5933 56.578 16.46C56.578 15.3133 56.8113 14.3067 57.278 13.44C57.7446 12.5733 58.398 11.9067 59.238 11.44C60.078 10.9733 61.0446 10.74 62.138 10.74C63.1913 10.74 64.1313 10.9667 64.958 11.42C65.798 11.8733 66.4446 12.52 66.898 13.36C67.3646 14.1867 67.598 15.14 67.598 16.22ZM64.698 15.42C64.6846 14.7 64.4246 14.1267 63.918 13.7C63.4113 13.26 62.7913 13.04 62.058 13.04C61.3646 13.04 60.778 13.2533 60.298 13.68C59.8313 14.0933 59.5446 14.6733 59.438 15.42H64.698ZM68.9217 16.42C68.9217 15.3 69.1417 14.3067 69.5817 13.44C70.0351 12.5733 70.6417 11.9067 71.4017 11.44C72.1751 10.9733 73.0351 10.74 73.9817 10.74C74.8084 10.74 75.5284 10.9067 76.1417 11.24C76.7684 11.5733 77.2684 11.9933 77.6417 12.5V10.92H80.4617V22H77.6417V20.38C77.2817 20.9 76.7817 21.3333 76.1417 21.68C75.5151 22.0133 74.7884 22.18 73.9617 22.18C73.0284 22.18 72.1751 21.94 71.4017 21.46C70.6417 20.98 70.0351 20.3067 69.5817 19.44C69.1417 18.56 68.9217 17.5533 68.9217 16.42ZM77.6417 16.46C77.6417 15.78 77.5084 15.2 77.2417 14.72C76.9751 14.2267 76.6151 13.8533 76.1617 13.6C75.7084 13.3333 75.2217 13.2 74.7017 13.2C74.1817 13.2 73.7017 13.3267 73.2617 13.58C72.8217 13.8333 72.4617 14.2067 72.1817 14.7C71.9151 15.18 71.7817 15.7533 71.7817 16.42C71.7817 17.0867 71.9151 17.6733 72.1817 18.18C72.4617 18.6733 72.8217 19.0533 73.2617 19.32C73.7151 19.5867 74.1951 19.72 74.7017 19.72C75.2217 19.72 75.7084 19.5933 76.1617 19.34C76.6151 19.0733 76.9751 18.7 77.2417 18.22C77.5084 17.7267 77.6417 17.14 77.6417 16.46ZM85.9964 12.64C86.3564 12.0533 86.8231 11.5933 87.3964 11.26C87.9831 10.9267 88.6497 10.76 89.3964 10.76V13.7H88.6564C87.7764 13.7 87.1097 13.9067 86.6564 14.32C86.2164 14.7333 85.9964 15.4533 85.9964 16.48V22H83.1964V10.92H85.9964V12.64ZM96.1023 22.14C95.129 22.14 94.249 21.9733 93.4623 21.64C92.689 21.3067 92.0757 20.8267 91.6223 20.2C91.169 19.5733 90.9357 18.8333 90.9223 17.98H93.9223C93.9623 18.5533 94.1623 19.0067 94.5223 19.34C94.8957 19.6733 95.4023 19.84 96.0423 19.84C96.6957 19.84 97.209 19.6867 97.5823 19.38C97.9557 19.06 98.1423 18.6467 98.1423 18.14C98.1423 17.7267 98.0157 17.3867 97.7623 17.12C97.509 16.8533 97.189 16.6467 96.8023 16.5C96.429 16.34 95.909 16.1667 95.2423 15.98C94.3357 15.7133 93.5957 15.4533 93.0223 15.2C92.4623 14.9333 91.9757 14.54 91.5623 14.02C91.1623 13.4867 90.9623 12.78 90.9623 11.9C90.9623 11.0733 91.169 10.3533 91.5823 9.74C91.9957 9.12667 92.5757 8.66 93.3223 8.34C94.069 8.00667 94.9223 7.84 95.8823 7.84C97.3223 7.84 98.489 8.19333 99.3823 8.9C100.289 9.59333 100.789 10.5667 100.882 11.82H97.8023C97.7757 11.34 97.569 10.9467 97.1823 10.64C96.809 10.32 96.309 10.16 95.6823 10.16C95.1357 10.16 94.6957 10.3 94.3623 10.58C94.0423 10.86 93.8823 11.2667 93.8823 11.8C93.8823 12.1733 94.0023 12.4867 94.2423 12.74C94.4957 12.98 94.8023 13.18 95.1623 13.34C95.5357 13.4867 96.0557 13.66 96.7223 13.86C97.629 14.1267 98.369 14.3933 98.9423 14.66C99.5157 14.9267 100.009 15.3267 100.422 15.86C100.836 16.3933 101.042 17.0933 101.042 17.96C101.042 18.7067 100.849 19.4 100.462 20.04C100.076 20.68 99.509 21.1933 98.7623 21.58C98.0157 21.9533 97.129 22.14 96.1023 22.14ZM106.73 13.22V18.58C106.73 18.9533 106.817 19.2267 106.99 19.4C107.177 19.56 107.483 19.64 107.91 19.64H109.21V22H107.45C105.09 22 103.91 20.8533 103.91 18.56V13.22H102.59V10.92H103.91V8.18H106.73V10.92H109.21V13.22H106.73ZM110.504 16.42C110.504 15.3 110.724 14.3067 111.164 13.44C111.617 12.5733 112.224 11.9067 112.984 11.44C113.757 10.9733 114.617 10.74 115.564 10.74C116.39 10.74 117.11 10.9067 117.724 11.24C118.35 11.5733 118.85 11.9933 119.224 12.5V10.92H122.044V22H119.224V20.38C118.864 20.9 118.364 21.3333 117.724 21.68C117.097 22.0133 116.37 22.18 115.544 22.18C114.61 22.18 113.757 21.94 112.984 21.46C112.224 20.98 111.617 20.3067 111.164 19.44C110.724 18.56 110.504 17.5533 110.504 16.42ZM119.224 16.46C119.224 15.78 119.09 15.2 118.824 14.72C118.557 14.2267 118.197 13.8533 117.744 13.6C117.29 13.3333 116.804 13.2 116.284 13.2C115.764 13.2 115.284 13.3267 114.844 13.58C114.404 13.8333 114.044 14.2067 113.764 14.7C113.497 15.18 113.364 15.7533 113.364 16.42C113.364 17.0867 113.497 17.6733 113.764 18.18C114.044 18.6733 114.404 19.0533 114.844 19.32C115.297 19.5867 115.777 19.72 116.284 19.72C116.804 19.72 117.29 19.5933 117.744 19.34C118.197 19.0733 118.557 18.7 118.824 18.22C119.09 17.7267 119.224 17.14 119.224 16.46ZM124.058 16.46C124.058 15.3133 124.292 14.3133 124.758 13.46C125.225 12.5933 125.872 11.9267 126.698 11.46C127.525 10.98 128.472 10.74 129.538 10.74C130.912 10.74 132.045 11.0867 132.938 11.78C133.845 12.46 134.452 13.42 134.758 14.66H131.738C131.578 14.18 131.305 13.8067 130.918 13.54C130.545 13.26 130.078 13.12 129.518 13.12C128.718 13.12 128.085 13.4133 127.618 14C127.152 14.5733 126.918 15.3933 126.918 16.46C126.918 17.5133 127.152 18.3333 127.618 18.92C128.085 19.4933 128.718 19.78 129.518 19.78C130.652 19.78 131.392 19.2733 131.738 18.26H134.758C134.452 19.46 133.845 20.4133 132.938 21.12C132.032 21.8267 130.898 22.18 129.538 22.18C128.472 22.18 127.525 21.9467 126.698 21.48C125.872 21 125.225 20.3333 124.758 19.48C124.292 18.6133 124.058 17.6067 124.058 16.46ZM143.37 22L139.61 17.28V22H136.81V7.2H139.61V15.62L143.33 10.92H146.97L142.09 16.48L147.01 22H143.37Z" fill="#0052CC"/>
<path d="M27.3864 18.873C27.3864 18.8145 27.3864 18.7559 27.3864 18.6855C27.3864 14.5488 23.9528 11.2324 19.7223 11.2324C19.6286 11.2324 18.1989 11.2324 16.3708 11.1973C16.1833 11.3145 16.0075 11.4082 15.82 11.502C14.2966 12.3809 12.7145 13.084 11.2848 13.541C11.1911 13.3535 11.0973 13.2012 11.0153 13.0488C12.3864 12.6504 13.9684 11.959 15.5505 11.0449C19.652 8.70117 22.3356 5.68945 21.5153 4.29492C20.7301 2.92383 16.7692 3.68555 12.6911 6.06445C9.90202 7.68164 7.76921 9.62695 6.97233 11.127C6.63249 11.1621 6.30436 11.2441 5.96452 11.3379C5.31999 11.4902 4.65202 11.7363 4.01921 12.0645C0.8903 13.7402 -0.633137 16.9629 0.620769 19.3066C1.55827 21.0996 3.87858 21.8262 6.28093 21.3457L6.33952 21.4629C6.18718 21.6738 6.06999 21.9199 5.97624 22.166C3.99577 22.377 2.44889 24.0527 2.44889 26.0918L2.65983 25.8809L2.41374 26.1855L5.51921 26.1504H12.3044C12.3044 23.8418 14.2262 21.9199 16.5348 21.9199V22.4707C14.4958 22.4707 12.8551 24.1113 12.8551 26.1152H13.5231H19.9684C22.2184 26.0215 24.2223 25.0254 25.57 23.4434C25.9919 23.7832 26.5426 23.9941 27.152 23.9941C28.5817 23.9941 29.7419 22.834 29.7419 21.4043C29.7653 20.0684 28.7223 18.9668 27.3864 18.873ZM6.18718 15.6855C5.54264 15.6855 5.02702 15.1699 5.02702 14.5254C5.02702 13.8809 5.54264 13.3652 6.18718 13.3652C6.83171 13.3652 7.34733 13.8809 7.34733 14.5254C7.34733 15.1699 6.81999 15.6855 6.18718 15.6855Z" fill="url(#paint0_linear_41_2)"/>
<defs>
<linearGradient id="paint0_linear_41_2" x1="14.9619" y1="3.61565" x2="14.9619" y2="26.1855" gradientUnits="userSpaceOnUse">
<stop stop-color="#2684FF"/>
<stop offset="1" stop-color="#066BEE"/>
</linearGradient>
</defs>
</svg>
